#!OML:ASF H:\Terrain\Patient Classification 1\Walking\liu\liu.ASF
:FULLY-SPECIFIED
:DEGREES
140
root 9.64833 16.3499 -13.5298 6.1942 6.40782 5.6967
lowerback -8.0983 -4.68331 -7.45236
upperback -0.0780465 -5.61984 1.65962
thorax 5.3509 -2.99392 5.17459
lowerneck -20.9813 -4.33571 -12.5434
upperneck 21.1075 -5.24973 12.7179
head 10.9785 -1.90395 5.9615
rclavicle -2.43511e-015 1.59028e-014
rhumerus -49.5932 12.5922 -88.5039
rradius 35.1905
rwrist -17.6662
rhand -22.8701 -32.655
rfingers 7.12502
rthumb 3.56851 -62.6049
lclavicle -2.43511e-015 1.59028e-014
lhumerus -18.7424 -27.0388 89.7832
lradius 42.7181
lwrist 10.907
lhand -11.1643 -24.747
lfingers 7.12502
lthumb 14.8622 4.6999
rfemur -41.1162 17.1163 2.8629
rtibia 25.3007
rfoot -28.6264 -19.3618
rtoes -17.3695
lfemur 13.2848 3.47086 -28.9768
ltibia 1.27222e-014
lfoot -14.5996 2.02464
ltoes -3.47791
141
root 9.63579 16.3277 -13.3763 6.19722 6.5139 6.06442
lowerback -8.17183 -4.64473 -7.79989
upperback -0.000280317 -5.52305 1.57521
thorax 5.48588 -2.9605 5.28593
lowerneck -21.3483 -4.55553 -12.4091
upperneck 21.2872 -5.49336 12.3946
head 11.1373 -2.03069 5.78248
rclavicle -2.17172e-014 -7.95139e-016
rhumerus -49.3236 12.2254 -88.2495
rradius 34.5549
rwrist -17.2663
rhand -24.8007 -29.3614
rfingers 7.12502
rthumb 1.70409 -59.3343
lclavicle -2.17172e-014 -7.95139e-016
lhumerus -19.22 -27.627 90.3481
lradius 43.3002
lwrist 11.383
lhand -11.4238 -24.5075
lfingers 7.12502
lthumb 14.6122 4.95768
rfemur -40.8142 15.5711 3.38935
rtibia 25.4721
rfoot -27.8203 -18.5502
rtoes -15.6294
lfemur 13.9011 3.66732 -29.1583
ltibia 2.8625e-014
lfoot -14.7539 1.91312
ltoes -5.14588
142
root 9.6222 16.3002 -13.2264 6.15685 6.80739 6.58534
lowerback -7.98962 -4.69937 -8.30456
upperback -0.0641149 -5.558 1.43579
thorax 5.35647 -2.98236 5.43034
lowerneck -20.9694 -4.61324 -12.7109
upperneck 21.0992 -5.57856 12.6777
head 11.0274 -2.07255 5.9212
rclavicle -9.74045e-015 1.03368e-014
rhumerus -49.1571 11.6577 -87.9419
rradius 33.7926
rwrist -16.6454
rhand -26.5807 -26.205
rfingers 7.12502
rthumb -0.0151162 -56.1847
lclavicle -9.74045e-015 1.03368e-014
lhumerus -19.918 -27.4913 90.9869
lradius 43.663
lwrist 11.3856
lhand -11.2389 -24.416
lfingers 7.12502
lthumb 14.7903 5.03627
rfemur -40.3967 13.5135 4.00592
rtibia 25.8286
rfoot -26.4902 -18.0289
rtoes -16.7868
lfemur 14.572 3.67223 -29.4574
ltibia -3.18055e-015
lfoot -14.8256 1.68946
ltoes -5.02866
143
root 9.60142 16.2816 -13.0779 6.04466 7.18751 6.70376
lowerback -7.7327 -4.73781 -8.44202
upperback -0.175886 -5.61784 1.33318
thorax 5.10562 -3.00125 5.41295
lowerneck -20.1087 -4.55133 -12.9879
upperneck 20.6094 -5.58576 13.1524
head 10.7097 -2.06993 6.12716
rclavicle 4.99198e-014 9.54166e-015
rhumerus -49.3367 11.2602 -87.9615
rradius 33.4328
rwrist -16.3596
rhand -26.4661 -26.4823
rfingers 7.12502
rthumb 0.0956035 -56.4621
lclavicle 4.99198e-014 9.54166e-015
lhumerus -20.6034 -27.6366 91.4727
lradius 43.7718
lwrist 11.3323
lhand -11.1239 -24.7515
lfingers 7.12502
lthumb 14.9011 4.69254
rfemur -40.0711 12.0277 4.76957
rtibia 26.3942
rfoot -25.7392 -17.757
rtoes -16.2872
lfemur 15.2553 3.62875 -29.2842
ltibia -6.36111e-014
lfoot -14.9206 1.55534
ltoes -5.50711
144
root 9.58583 16.271 -12.9096 5.92834 7.25725 6.91782
lowerback -7.74507 -4.69911 -8.68327
upperback -0.226133 -5.54135 1.2647
thorax 5.06344 -2.96472 5.48812
lowerneck -19.47 -4.54239 -13.0946
upperneck 20.2325 -5.58549 13.16
head 10.4552 -2.09708 6.13011
rclavicle -5.50882e-014 -4.77083e-015
rhumerus -49.7731 11.231 -88.0387
rradius 33.5838
rwrist -16.3445
rhand -26.3846 -27.5296
rfingers 7.12502
rthumb 0.17431 -57.5093
lclavicle -5.50882e-014 -4.77083e-015
lhumerus -21.3985 -27.9174 92.1622
lradius 43.9426
lwrist 11.5153
lhand -11.1823 -24.7738
lfingers 7.12502
lthumb 14.8449 4.67446
rfemur -39.7754 10.2753 5.63536
rtibia 27.0449
rfoot -24.3507 -16.3553
rtoes -16.0148
lfemur 16.0545 3.87432 -29.2258
ltibia -4.45278e-014
lfoot -14.7882 1.16896
ltoes -5.3045
145
root 9.57271 16.2582 -12.7353 5.90262 7.41925 7.18124
lowerback -7.94687 -4.74679 -8.95676
upperback -0.197288 -5.55654 1.21282
thorax 5.23196 -2.98477 5.56693
lowerneck -19.3595 -4.53869 -13.1001
upperneck 20.1079 -5.54931 13.037
head 10.3799 -2.09759 6.08404
rclavicle 2.63887e-014 -5.56597e-015
rhumerus -49.7762 11.1801 -88.002
rradius 33.3656
rwrist -16.2039
rhand -26.6964 -28.3626
rfingers 7.12502
rthumb -0.126869 -58.3423
lclavicle 2.63887e-014 -5.56597e-015
lhumerus -22.0785 -27.7905 92.8334
lradius 44.0776
lwrist 11.5533
lhand -11.4658 -24.7677
lfingers 7.12502
lthumb 14.5717 4.70044
rfemur -39.4668 8.4938 6.38137
rtibia 27.6927
rfoot -22.5093 -14.969
rtoes -17.6534
lfemur 16.7755 4.00875 -29.2151
ltibia -9.54166e-015
lfoot -14.4486 0.709306
ltoes -4.63603
146
root 9.55506 16.2399 -12.5684 5.83144 7.76447 7.17338
lowerback -8.00976 -4.81196 -8.93458
upperback -0.1177 -5.63393 1.16459
thorax 5.35796 -3.02883 5.48267
lowerneck -19.5187 -4.563 -13.0634
upperneck 20.1338 -5.59467 13.1046
head 10.4277 -2.10291 6.09807
rclavicle -7.06928e-014 9.54166e-015
rhumerus -49.089 10.4112 -87.6501
rradius 32.201
rwrist -15.3264
rhand -27.1045 -27.6291
rfingers 7.12502
rthumb -0.521061 -57.6082
lclavicle -7.06928e-014 9.54166e-015
lhumerus -22.4322 -27.5374 93.2215
lradius 43.9389
lwrist 11.3426
lhand -11.5976 -24.9352
lfingers 7.12502
lthumb 14.4447 4.5421
rfemur -39.1443 7.07378 7.22033
rtibia 28.4207
rfoot -20.9744 -14.1809
rtoes -17.5005
lfemur 17.4721 3.98582 -28.8865
ltibia 4.13472e-014
lfoot -14.3378 0.402114
ltoes -6.07211
147
root 9.53392 16.2382 -12.4017 5.83366 7.83085 7.00578
lowerback -8.03663 -4.83819 -8.8101
upperback -0.151633 -5.68106 1.20322
thorax 5.33634 -3.04753 5.4463
lowerneck -19.4039 -4.57742 -13.0577
upperneck 19.9852 -5.64023 13.1939
head 10.3626 -2.11695 6.11755
rclavicle 3.27995e-014 -4.77083e-015
rhumerus -49.1614 10.3052 -87.7197
rradius 32.0709
rwrist -15.4902
rhand -27.9854 -25.7847
rfingers 7.12502
rthumb -1.37181 -55.76
lclavicle 3.27995e-014 -4.77083e-015
lhumerus -22.8405 -27.1602 93.6238
lradius 43.6308
lwrist 11.0707
lhand -11.4367 -24.9111
lfingers 7.12502
lthumb 14.5998 4.55505
rfemur -39.1067 5.53424 8.39884
rtibia 29.1878
rfoot -18.844 -13.4742
rtoes -17.5989
lfemur 18.0632 4.22243 -28.3716
ltibia -3.18055e-015
lfoot -14.3289 0.110637
ltoes -8.1483
